<svg xmlns="http://www.w3.org/2000/svg" xmlns:xlink="http://www.w3.org/1999/xlink" width="1080" zoomAndPan="magnify" viewBox="0 0 810 809.999993" height="1080" preserveAspectRatio="xMidYMid meet" version="1.0"><defs><clipPath id="73f967b9de"><path d="M 288 232 L 527 232 L 527 510 L 288 510 Z M 288 232 " clip-rule="nonzero"/></clipPath><clipPath id="89914afe74"><path d="M 506.457031 522.035156 L 217.734375 375.007812 L 303.503906 206.589844 L 592.222656 353.617188 Z M 506.457031 522.035156 " clip-rule="nonzero"/></clipPath><clipPath id="b74de12207"><path d="M 506.457031 522.035156 L 217.734375 375.007812 L 303.503906 206.589844 L 592.222656 353.617188 Z M 506.457031 522.035156 " clip-rule="nonzero"/></clipPath><clipPath id="de8fc3f15d"><path d="M 506.457031 522.035156 L 217.734375 375.007812 L 303.503906 206.589844 L 592.222656 353.617188 Z M 506.457031 522.035156 " clip-rule="nonzero"/></clipPath></defs><g clip-path="url(#73f967b9de)"><g clip-path="url(#89914afe74)"><g clip-path="url(#b74de12207)"><g clip-path="url(#de8fc3f15d)"><path fill="#000000" d="M 288.921875 237.039062 C 289.160156 238.203125 290.296875 238.953125 291.457031 238.714844 C 291.71875 238.664062 318.109375 233.433594 347.945312 240.136719 C 386.003906 248.6875 412.140625 271.757812 425.710938 308.734375 C 412.085938 302.894531 397.300781 300.21875 382.011719 300.9375 C 360.597656 301.933594 339.898438 309.472656 323.726562 322.171875 C 299.1875 341.433594 290.699219 368.460938 301.566406 392.710938 C 307.382812 405.691406 319.523438 414.792969 335.746094 418.324219 C 350.855469 421.613281 368.148438 419.96875 384.445312 413.699219 C 416.3125 401.433594 447.441406 368.921875 432.957031 317.113281 C 437.113281 319.433594 441.207031 322.125 445.171875 325.207031 C 493.527344 362.738281 505.746094 422.027344 481.515625 501.433594 L 457.882812 463.605469 C 457.253906 462.601562 455.925781 462.292969 454.917969 462.917969 C 453.914062 463.546875 453.605469 464.875 454.230469 465.878906 L 480.671875 508.207031 C 481.300781 509.210938 482.628906 509.519531 483.636719 508.894531 L 525.96875 482.46875 C 526.972656 481.84375 527.28125 480.511719 526.65625 479.507812 C 526.441406 479.167969 526.144531 478.902344 525.804688 478.730469 C 525.152344 478.398438 524.347656 478.402344 523.683594 478.816406 L 485.667969 502.554688 C 510.417969 421.335938 497.695312 360.523438 447.8125 321.804688 C 442.53125 317.703125 436.960938 314.179688 431.160156 311.265625 C 423.710938 288.996094 411.792969 271.09375 395.730469 258.03125 C 390.058594 253.414062 383.863281 249.402344 377.191406 246.003906 C 368.496094 241.574219 358.984375 238.199219 348.738281 235.90625 C 318.019531 229.039062 291.703125 234.273438 290.597656 234.492188 C 289.429688 234.738281 288.683594 235.875 288.921875 237.039062 Z M 382.898438 409.679688 C 367.605469 415.570312 350.75 417.191406 336.660156 414.117188 C 332.601562 413.234375 328.023438 411.8125 323.546875 409.53125 C 316.453125 405.917969 309.617188 400.152344 305.488281 390.945312 C 295.316406 368.246094 303.132812 343.800781 326.382812 325.542969 C 351.59375 305.757812 392.019531 297.367188 427.644531 314.359375 C 444.035156 365.691406 413.847656 397.777344 382.898438 409.679688 Z M 382.898438 409.679688 " fill-opacity="1" fill-rule="nonzero"/></g></g></g></g></svg>