<svg xmlns="http://www.w3.org/2000/svg" xmlns:xlink="http://www.w3.org/1999/xlink" width="1080" zoomAndPan="magnify" viewBox="0 0 810 809.999993" height="1080" preserveAspectRatio="xMidYMid meet" version="1.0"><defs><clipPath id="fa560de33a"><path d="M 275 224 L 541 224 L 541 597 L 275 597 Z M 275 224 " clip-rule="nonzero"/></clipPath><clipPath id="cf8a2de090"><path d="M 527.585938 211.945312 L 597.601562 528.289062 L 282.722656 597.980469 L 212.707031 281.636719 Z M 527.585938 211.945312 " clip-rule="nonzero"/></clipPath><clipPath id="acf9645cb9"><path d="M 527.585938 211.945312 L 597.601562 528.289062 L 282.722656 597.980469 L 212.707031 281.636719 Z M 527.585938 211.945312 " clip-rule="nonzero"/></clipPath><clipPath id="a10941cd52"><path d="M 527.585938 211.945312 L 597.601562 528.289062 L 282.722656 597.980469 L 212.707031 281.636719 Z M 527.585938 211.945312 " clip-rule="nonzero"/></clipPath></defs><g clip-path="url(#fa560de33a)"><g clip-path="url(#cf8a2de090)"><g clip-path="url(#acf9645cb9)"><g clip-path="url(#a10941cd52)"><path fill="#000000" d="M 285.863281 596.90625 C 284.105469 597.296875 282.363281 596.183594 281.976562 594.425781 C 266.6875 525.347656 279.339844 454.214844 317.585938 394.140625 C 355.84375 334.066406 414.914062 292.585938 483.9375 277.308594 L 528.464844 267.453125 L 471.320312 230.980469 C 470.558594 230.492188 470.074219 229.746094 469.894531 228.929688 C 469.710938 228.113281 469.835938 227.230469 470.324219 226.46875 C 471.292969 224.945312 473.304688 224.5 474.832031 225.472656 L 538.617188 266.195312 C 538.804688 266.3125 538.96875 266.453125 539.121094 266.59375 C 539.1875 266.65625 539.242188 266.726562 539.300781 266.804688 C 539.375 266.898438 539.460938 266.984375 539.535156 267.074219 C 539.59375 267.167969 539.644531 267.277344 539.707031 267.371094 C 539.753906 267.453125 539.808594 267.535156 539.84375 267.632812 C 540.011719 268.027344 540.109375 268.460938 540.121094 268.882812 C 540.128906 268.976562 540.109375 269.074219 540.109375 269.179688 C 540.105469 269.289062 540.105469 269.410156 540.078125 269.523438 C 540.050781 269.648438 540.019531 269.75 539.976562 269.863281 C 539.957031 269.949219 539.9375 270.046875 539.90625 270.136719 C 539.828125 270.339844 539.726562 270.535156 539.617188 270.707031 L 498.957031 334.535156 C 497.984375 336.058594 495.972656 336.503906 494.449219 335.53125 C 492.925781 334.558594 492.480469 332.546875 493.449219 331.019531 L 529.878906 273.839844 L 485.339844 283.695312 C 345.789062 314.582031 257.414062 453.34375 288.332031 593.03125 C 288.730469 594.773438 287.621094 596.519531 285.863281 596.90625 Z M 285.863281 596.90625 " fill-opacity="1" fill-rule="nonzero"/></g></g></g></g></svg>