<?xml version="1.0" encoding="iso-8859-1"?>
<!-- Generator: Adobe Illustrator 18.1.1, SVG Export Plug-In . SVG Version: 6.00 Build 0)  -->
<svg version="1.1" id="Capa_1" xmlns="http://www.w3.org/2000/svg" xmlns:xlink="http://www.w3.org/1999/xlink" x="0px" y="0px"
	 viewBox="0 0 497.846 497.846" style="enable-background:new 0 0 497.846 497.846;" xml:space="preserve">
<g>
	<g>
		<path style="fill:#010002;" d="M377.19,397.54h-91.072c-8.216,0-15.585-4.893-18.772-12.477c-0.764-1.82-1.259-3.759-1.462-5.764
			c-0.638-6.044,1.438-12.023,5.716-16.379c5.889-5.991,9.135-13.903,9.135-22.286c0-6.468-1.951-12.709-5.645-18.044
			c-4.296-6.2-10.663-10.687-17.942-12.644c-5.549-1.492-10.901-1.492-16.451,0c-7.274,1.957-13.646,6.444-17.936,12.644
			c-3.693,5.34-5.645,11.576-5.645,18.044c0,8.383,3.24,16.296,9.129,22.28c4.284,4.356,6.361,10.335,5.722,16.409
			c-0.209,1.975-0.698,3.896-1.45,5.716c-3.198,7.602-10.567,12.501-18.784,12.501h-91.078c-11.218,0-20.347-9.129-20.347-20.347
			v-61.268c-8.771,3.622-18.223,5.513-27.8,5.513C32.525,321.438,0,288.907,0,248.923s32.531-72.509,72.509-72.509
			c9.583,0,19.034,1.886,27.8,5.507v-61.268c0-11.218,9.129-20.347,20.347-20.347H377.19c11.218,0,20.347,9.129,20.347,20.347
			v61.274c8.765-3.622,18.223-5.507,27.8-5.507c39.984,0,72.509,32.525,72.509,72.509s-32.525,72.503-72.509,72.503
			c-9.577,0-19.028-1.886-27.8-5.513v61.262C397.537,388.41,388.407,397.54,377.19,397.54z M248.92,296.885
			c3.729,0,7.536,0.519,11.325,1.533c10,2.691,18.754,8.861,24.655,17.376c5.084,7.339,7.769,15.932,7.769,24.84
			c0,11.534-4.457,22.417-12.554,30.652c-1.766,1.802-2.625,4.272-2.363,6.778c0.089,0.859,0.286,1.647,0.597,2.375
			c1.319,3.139,4.368,5.167,7.775,5.167h91.066c4.636,0,8.413-3.777,8.413-8.413V295.87l8.992,5.287
			c9.284,5.46,19.917,8.342,30.741,8.342c33.403,0,60.576-27.179,60.576-60.582s-27.179-60.576-60.576-60.576
			c-10.836,0-21.469,2.882-30.741,8.336l-8.992,5.293v-81.316c0-4.636-3.777-8.413-8.413-8.413H120.656
			c-4.636,0-8.413,3.777-8.413,8.413v81.316l-8.992-5.287c-9.273-5.454-19.905-8.336-30.741-8.336
			c-33.403,0-60.576,27.173-60.576,60.576s27.173,60.582,60.576,60.582c10.83,0,21.463-2.882,30.741-8.342l8.992-5.287v81.311
			c0,4.642,3.777,8.425,8.413,8.425h91.072c3.401,0,6.456-2.029,7.775-5.167c0.304-0.728,0.501-1.527,0.591-2.363
			c0.268-2.524-0.597-5-2.363-6.802c-8.091-8.216-12.554-19.106-12.554-30.646c0-8.909,2.685-17.501,7.769-24.84
			c5.895-8.515,14.655-14.684,24.649-17.376C241.384,297.404,245.197,296.885,248.92,296.885z"/>
	</g>
</g>
<g>
</g>
<g>
</g>
<g>
</g>
<g>
</g>
<g>
</g>
<g>
</g>
<g>
</g>
<g>
</g>
<g>
</g>
<g>
</g>
<g>
</g>
<g>
</g>
<g>
</g>
<g>
</g>
<g>
</g>
</svg>
