<svg xmlns="http://www.w3.org/2000/svg" xmlns:xlink="http://www.w3.org/1999/xlink" width="1080" zoomAndPan="magnify" viewBox="0 0 810 809.999993" height="1080" preserveAspectRatio="xMidYMid meet" version="1.0"><defs><clipPath id="432516bed9"><path d="M 238 272 L 551 272 L 551 546 L 238 546 Z M 238 272 " clip-rule="nonzero"/></clipPath><clipPath id="164c265b46"><path d="M 382.988281 190.734375 L 614.800781 355.238281 L 427.292969 619.46875 L 195.480469 454.964844 Z M 382.988281 190.734375 " clip-rule="nonzero"/></clipPath><clipPath id="07bcff2928"><path d="M 382.988281 190.734375 L 614.800781 355.238281 L 427.292969 619.46875 L 195.480469 454.964844 Z M 382.988281 190.734375 " clip-rule="nonzero"/></clipPath><clipPath id="8f9a60a8c5"><path d="M 382.988281 190.734375 L 614.800781 355.238281 L 427.292969 619.46875 L 195.480469 454.964844 Z M 382.988281 190.734375 " clip-rule="nonzero"/></clipPath></defs><g clip-path="url(#432516bed9)"><g clip-path="url(#164c265b46)"><g clip-path="url(#07bcff2928)"><g clip-path="url(#8f9a60a8c5)"><path fill="#000000" d="M 441.554688 272.996094 C 426.511719 272.183594 410.578125 271.933594 395.078125 273.511719 C 382.890625 274.757812 370.980469 277.140625 359.976562 281.257812 C 320.648438 296.011719 286.957031 326.34375 267.558594 362.332031 C 238.761719 398.980469 227.976562 442.871094 252.394531 486.011719 C 257.859375 495.671875 265.667969 503.761719 274.683594 510.5625 C 287.882812 520.519531 303.667969 527.71875 318.316406 533.160156 C 348.441406 544.339844 380.195312 548.5625 410.511719 544.425781 C 440.9375 540.277344 469.910156 527.722656 494.34375 505.34375 C 533.757812 469.253906 553.898438 426.78125 550.296875 389.5625 C 549.871094 385.105469 549.101562 380.722656 547.984375 376.433594 C 551.511719 355.058594 548.554688 334.039062 537.0625 315.058594 C 521.109375 288.738281 493.707031 275.761719 461.644531 273.25 C 455.117188 272.738281 448.402344 272.664062 441.554688 272.996094 Z M 256.296875 388.730469 C 240.890625 418.292969 238.289062 451.101562 256.625 483.632812 C 261.746094 492.726562 269.109375 500.332031 277.570312 506.746094 C 280.039062 508.617188 282.605469 510.390625 285.238281 512.070312 C 249.128906 475.410156 243.109375 430.125 256.296875 388.730469 Z M 543.976562 364.753906 C 544.847656 348.398438 541.402344 332.449219 532.519531 317.804688 C 523.898438 303.59375 511.699219 293.574219 497.167969 287.164062 C 501.703125 290.28125 505.875 294.078125 509.605469 298.734375 L 510.582031 299.949219 L 508.148438 301.898438 L 507.167969 300.683594 C 501.390625 293.519531 494.464844 288.488281 486.808594 284.9375 C 481.824219 282.628906 476.523438 280.945312 471.023438 279.714844 C 467.816406 279.214844 464.546875 278.835938 461.230469 278.574219 C 422.699219 275.550781 377.265625 288.136719 337.890625 310.378906 C 310.34375 325.933594 285.710938 346.230469 268.570312 369.292969 C 266.773438 372.949219 265.132812 376.664062 263.652344 380.421875 C 246.84375 423.074219 250.769531 471.230469 289 509.402344 C 296.832031 517.226562 305.667969 523.003906 315.222656 526.964844 C 316.460938 527.457031 317.691406 527.933594 318.910156 528.390625 C 331.878906 533.0625 346.066406 534.554688 360.777344 533.421875 C 396.53125 530.683594 435.414062 512.53125 468.152344 486.582031 C 500.808594 460.691406 527.371094 427.027344 538.507812 392.96875 C 540.65625 386.390625 542.234375 379.800781 543.148438 373.246094 C 533.789062 343.730469 506.574219 319.316406 458.742188 306.972656 L 457.09375 306.550781 L 457.9375 303.261719 L 459.578125 303.683594 C 504.960938 315.246094 532.265625 337.5625 543.976562 364.753906 Z M 546.023438 385.820312 C 545.289062 388.75 544.441406 391.675781 543.480469 394.601562 C 532.019531 429.503906 504.808594 464.050781 471.277344 490.53125 C 437.6875 517.042969 397.769531 535.453125 361.140625 538.171875 C 359.074219 538.328125 357.015625 538.429688 354.972656 538.484375 C 373.351562 541.820312 391.890625 542.441406 409.917969 540.03125 C 439.496094 536.070312 467.703125 523.949219 491.519531 502.253906 C 529.957031 467.261719 549.902344 426.128906 546.515625 389.925781 C 546.386719 388.546875 546.21875 387.179688 546.023438 385.820312 Z M 416.804688 275.832031 C 409.679688 275.929688 402.515625 276.289062 395.449219 277.035156 C 383.582031 278.292969 371.980469 280.640625 361.273438 284.691406 C 330.347656 296.40625 303.011719 317.976562 283.703125 344.335938 C 298.554688 329.679688 316.207031 316.625 335.300781 305.8125 C 361.066406 291.207031 389.402344 280.707031 416.804688 275.832031 Z M 416.804688 275.832031 " fill-opacity="1" fill-rule="evenodd"/></g></g></g></g></svg>